<svg id="Layer_1" enable-background="new 0 0 512 512" height="512" viewBox="0 0 512 512" width="512" xmlns="http://www.w3.org/2000/svg"><path d="m128.4 323h-67.7c-7.8 1.5-15.4 3.6-22.9 6.2l-4.9 1.7c-8.5 2.9-15.5 9.1-19.2 17.3-.2.4-.3.7-.4 1.1-1.5 3.8-2.2 7.9-2.2 12v70.7h144l2.9-100.6-6.6-2.2c-7.6-2.6-15.2-4.7-23-6.2z" fill="#6994fe"/><path d="m498.7 361c-.2-.4-.3-.8-.5-1.2-4-8.8-11.5-15.5-20.6-18.6l-5.2-1.8c-8-2.8-16.2-5-24.6-6.6h-72.7c-6 1.2-11.9 2.7-17.7 4.4h.1l-.5 94.8h144v-58.2c0-4.3-.8-8.7-2.3-12.8z" fill="#6994fe"/><path d="m320.2 211.8 3.9-8.8h-139.4l-6.3 9.3-.6-.1c0 .1-.1.2-.1.3-.5 3-1.2 6-2.2 8.9l-10.7 32.3c-7.6 23.2-7.4 48.2.6 71.3l167.5-6.9c8.2-21.5 8.5-45.3.8-67z" fill="#4a5160"/><path d="m356.4 337.4c-4.7-9.6-13.3-16.6-23.6-19.3-3-.8-6-1.2-9.1-1.1h-135.5c-8.3 0-16.3 2.8-22.8 8-2.4 2-4.6 4.2-6.4 6.7-4.6 6.3-7.1 13.9-7 21.7v79.6h208v-79.6c.1-5.5-1.2-11-3.6-16z" fill="#e87187"/><path d="m104.6 369.2 7.3 62.9h-35.6l9.3-62.9z" fill="#f3ce7d"/><path d="m422.2 382.3h-20.3l-4.2-17.2 13.7-6.2 15.8 7.1-.2.3z" fill="#d1b06f"/><path d="m422.2 382.3 7.4 49.8h-37.4l9.7-49.8z" fill="#f3ce7d"/><path d="m109.2 354-.1.2-4.5 15h-19l-3.9-16.1 12.9-5.8z" fill="#d1b06f"/><path d="m115.4 320.9-41.4.1c-4.5 0-8.9 1.2-13.3 2l.1.4 4.9 37 28.9-13.2 28.9 13.1 4.9-37 .1-.5c-4.4-.7-8.7-1.4-13.1-1.9z" fill="#9fbfff"/><path d="m433.6 330.6-44.2.4c-4.8 0-9.5 1.1-14.3 2l.1.4 5.2 39.6 31-14.1 31 14.1 5.2-39.7.1-.5c-4.6-.9-9.4-1.7-14.1-2.2z" fill="#9fbfff"/><path d="m389 312 .2 18.5c.3 4.9 2.4 9.4 5.9 12.8l16.3 15.5 16.3-15.5c3.6-3.3 5.7-7.9 6.1-12.8l.2-18.5z" fill="#d3a8a1"/><path d="m115 300.6h-41v20.2c.2 4.5 2.1 8.8 5.4 11.9l15.1 14.5 15.2-14.5c3.2-3.1 5.2-7.4 5.3-11.9z" fill="#d3a8a1"/><path d="m94.6 177.7c25.9-.1 47 20.9 47.1 46.8 0 1.1 0 2.2-.1 3.3l-1 14.9v.3c-.1 1-.6 2-1.4 2.7l-7.5 3.5-2.2-8.9c-3.1-12.7-10.8-23.7-21.6-31-8.8 12.4-23.7 19-38.8 17.4l-3.5-.4h-.1c-1-.1-1.9.7-2 1.7l-1.6 19.5c0 .6-11.3-2-11.3-2-1-.5-1.7-1.4-1.9-2.4-.1-.2-.1-.4-.1-.6l-1-14.6c-.1-1.1-.1-2.2-.1-3.3.1-26 21.2-46.9 47.1-46.9z" fill="#93453b"/><path d="m115.2 302.6c-21.8 11.4-48.6 3-60-18.8-3.3-6.3-5.1-13.4-5.1-20.5v-.1c-5.4-.9-9.4-5.6-9.4-11.1 0-.9.1-1.8.3-2.7.9-3.6 4-6.2 7.6-6.5.2 1 .9 1.9 1.9 2.4 0 0 11.3 2.6 11.3 2l1.6-19.5c.1-1 1-1.7 2-1.7h.1l3.5.4c15.1 1.6 29.9-5 38.8-17.4 10.8 7.3 18.5 18.4 21.6 31l2.2 8.9 7.5-3.5c.8-.7 1.3-1.6 1.4-2.7 3.7.3 6.7 2.9 7.6 6.5.2.9.3 1.8.3 2.7 0 5.5-3.9 10.2-9.3 11.1v.1c0 16.7-9.3 31.8-23.9 39.4z" fill="#f5cac1"/><path d="m465.1 264.2c1.4 5.8-2.1 11.6-7.9 13-.9.2-1.7.3-2.6.3h-.7c-.6 14.9-8.7 28.6-20.5 35.8-13.4 8.1-30.3 8.1-43.7 0-11.9-7.2-20-21-20.6-35.8h-.8c-5.9 0-10.8-4.8-10.8-10.7 0-.9.1-1.7.3-2.6 1.1-4.3 5.4-6.9 9.6-6h.3c6.2-19.8 19.2-28.2 28.3-31.8 6.9 8.1 18 12.2 39 13.5 0 0 4.1 16.6 20 18.3h.3c4.4-.9 8.7 1.7 9.8 6z" fill="#f5cac1"/><path d="m437.6 204.1-.4.7c-2.1-1.5-4.3-2.8-6.6-4-19.8-10.7-42 2-45 3.8l-.2-.5c.3-14.4 12.2-25.9 26.6-25.6 14.1.3 25.4 11.6 25.6 25.6z" fill="#6d322e"/><path d="m446.7 212.4c-2.7-3.3-5.9-6.2-9.4-8.7-2.1-1.5-4.3-2.8-6.6-4-19.8-10.7-42 2-45 3.8-.2.1-.3.2-.3.2-12.7 9-19.7 23.9-18.7 39.4l1.1 16c6.2-19.8 19.2-28.2 28.3-31.8 6.9 8.1 18 12.2 39 13.5 0 0 4.1 16.6 20 18.3l1.1-15.9c.8-11.1-2.6-22.1-9.5-30.8z" fill="#6d322e"/><path d="m446.7 212.4c6.9 8.7 10.3 19.7 9.5 30.8l-1.1 15.9c-15.9-1.7-20-18.3-20-18.3-21-1.3-32.1-5.4-39-13.5-4.9-5.7-7.8-13.4-10.6-23.4 0-.1-.1-.1-.1-.2 0 0 .1-.1.3-.2 3-1.8 25.2-14.5 45-3.8 2.3 1.2 4.5 2.6 6.6 4 3.5 2.5 6.7 5.4 9.4 8.7z" fill="#93453b"/><path d="m301.9 430.6v1.9h-91.9v-73.2c31 9.6 60.9 9.6 91.9 0z" fill="#5fcda4"/><path d="m336.8 198.6c1 6.7-3.7 12.9-10.4 13.8-2.1.3-4.3 0-6.3-.8-.6-.2-1.1-.5-1.7-.8h-2.1v-19.3h2.1c3.5-3.6 9.1-4.2 13.2-1.3 2.9 2 4.8 5.1 5.2 8.4z" fill="#efc597"/><path d="m189 331.7c1.8-2.5 4-4.8 6.4-6.7 6.5-5.2 14.5-8 22.8-8h-30c-8.3 0-16.3 2.8-22.8 8-2.4 2-4.6 4.2-6.4 6.7-4.6 6.3-7.1 13.9-7 21.7v79.6h30v-79.6c-.1-7.8 2.4-15.4 7-21.7z" fill="#b76274"/><path d="m301.3 317c-9.1 0-16.4-7.4-16.3-16.5 0-.1 0-.1 0-.2v-29.3h-58v29.3c.2 9.1-7 16.5-16.1 16.7-.1 0-.1 0-.2 0h-.7v42.4c31 9.6 61 9.6 92 0v-42.4z" fill="#efc597"/><path d="m268.9 128h-16.6c-23-.1-41.8 18.5-41.9 41.5v.1c0 9.5-3.2 18.7-9.2 26.1-2.2 2.8-4.7 5.3-7.6 7.4l.3.1v14.3c-.1 34.3 27.6 62.2 61.9 62.4 10 0 19.9-2.3 28.8-6.9 5.7-3 10.8-6.8 15.3-11.3 11.7-11.7 18.2-27.6 18.1-44.1v-41.6c-23.7-6.2-42.4-24.4-49.1-48z" fill="#ffd8b7"/><path d="m257.6 273c-20.7-10.7-33.7-32.1-33.6-55.4v-78.7c-8.7 7.9-13.6 19-13.6 30.8 0 9.5-3.2 18.7-9.2 26.1-2.2 2.8-4.7 5.3-7.6 7.4l.3.1v14.3c-.1 34.3 27.6 62.2 61.9 62.4 5.1 0 10.2-.6 15.2-1.8-4.6-1.2-9.1-2.9-13.4-5.2z" fill="#ccaa92"/><path d="m268.9 129.6h-16.6c-23.1 0-41.9 18.8-41.9 41.9 0 19.4-13.3 36.2-32.1 40.8l-.6-.1c.5-2.9.7-5.9.7-8.8v-48.2c0-41.8 33.9-75.7 75.7-75.7 4.1 0 8.3.3 12.4 1l-.1.4v30.5c0 6.1.8 12.3 2.5 18.2z" fill="#6d7486"/><path d="m318.4 178c-30.6-7.7-52-35.1-52-66.6v-30.5l.1-.4c36.5 6.1 63.3 37.7 63.3 74.7v34.1c-3.9-1.5-8.3-.6-11.2 2.4h-.1z" fill="#4a5160"/><g fill="#284268"><path d="m504 358.4s0 0-.1-.2c-4.7-10.3-13.7-19-24.5-22.6l-5.4-1.8c-11.4-3.9-23.1-6.8-35-8.5v-9c11-7.5 18.3-19.4 20.1-32.6 8.6-2.6 13.7-11.4 11.6-20.2-1.2-4.7-4.7-8.5-9.4-10.1l.7-10.1c.9-12.6-3-25.1-10.9-35-2.3-2.9-4.9-5.6-7.8-8-1.1-17-15.1-30.2-32.1-30.3-16.9.2-30.8 13.3-32.1 30.1-13 10.5-20 26.6-18.9 43.2l.7 10.2c-4.7 1.5-8.3 5.3-9.5 10.1-.3 1.3-.5 2.7-.5 4.1 0 7.4 4.9 14 12.1 16.1 1.8 13.2 9 25 20 32.6v9.1c-8 1.2-15.8 2.9-23.7 5-4.5-7-11-12.7-18.9-16.1 6.7-21.3 6.3-44.2-1.1-65.3l-10.7-30.9c1-.2 1.9-.5 2.8-.9 7.8-3.2 12.5-11.2 11.4-19.5-.5-4.8-3-9.1-6.9-11.9v-30.7c0-45-37-81.7-82-81.7s-82 36.6-82 81.7v48.2c.1 5.5-.8 11-2.4 16.2l-10.5 32.2c-7.5 23.1-7.7 48.1-.4 71.3-.5.5-1 1-1.4 1.5l-3-1.1c-10.4-3.6-21.1-6.3-32.1-7.9v-9.6c13.5-8.5 22.2-22.8 23.6-38.6 7.2-3.6 10.9-11.8 8.9-19.6-1-4-3.6-7.3-7.2-9.3l.7-10.6c1.1-14.6-4.1-29.1-14.1-39.7-20.2-21.6-54-22.7-75.5-2.5-.9.8-1.7 1.7-2.5 2.5-10.1 10.7-15.2 25.1-14.1 39.7l.7 10.6c-3.6 2-6.2 5.3-7.2 9.3-1.9 7.8 1.8 15.9 9 19.6 1.4 15.9 10.2 30.1 23.7 38.6v9.6c-11 1.6-21.7 4.3-32.2 7.9l-4.9 1.7c-10.1 3.4-18.7 11.6-23.1 21.3.2-.5-.2.4 0 0-1.8 4.5-2.9 10-2.9 14.9v71.2c0 3.3 2.7 6.4 6 6.4l490 .2c3.3 0 6-3.1 6-6.4v-58.5c0-5.3-1.2-11.1-3-15.9zm-381.8-30.5-3.1 23.9-13.7-6.2 8.8-8.4c2.8-2.7 4.9-5.9 6.1-9.6.6.1 1.2.2 1.9.3zm-27.2 11.1-11.2-10.6c-2.3-2.2-3.7-5.2-3.8-8.5v-8.6c9.8 2.9 20.2 2.9 30 0v8.6c-.1 3.2-1.5 6.3-3.8 8.5zm7.3 18-1.8 6.4-9.9-.2-1.6-6.2 6-3.3zm-37.7-160.7c15.6-16.7 41.8-17.6 58.5-2 .7.6 1.3 1.3 2 2 7.8 8.3 11.7 19.4 10.9 30.7l-.7 10.1c-3.7-13.6-12.1-25.4-23.8-33.3-2.7-1.8-6.3-1.2-8.2 1.5-7.6 10.6-20.4 16.3-33.4 15l-3.6-.4c-.1 0-.1 0-.2 0-4.3-.4-8.1 2.8-8.5 7.1l-1.1 13.2c-.7-.1-1.4-.3-2-.4l-.8-12.8c-.8-11.3 3.1-22.4 10.9-30.7zm-8.4 66.8c0-2.9-2.1-5.4-5-5.9-3-.5-5-3.5-4.3-6.5l4.6.8c10.3 2.3 11.9 2.2 14.1.5 1.4-1 2.3-2.7 2.5-4.4l1.2-15.3c14.9 1.4 29.6-4.2 39.8-15.2 7.4 6.3 12.6 14.8 14.9 24.3l2.1 8.7c.4 1.7 1.5 3.3 3.1 4.1 1.7.9 3.7.8 5.3.1l8.1-3.9c.8 2.9-1 5.9-3.9 6.6-.1 0-.2.1-.4.1-2.9.5-5 3.1-5 6-.1 21.4-17.5 38.6-38.9 38.4-21-.1-38.1-17.2-38.2-38.4zm13.3 64.4c1.2 3.6 3.3 6.9 6.1 9.6l8.8 8.4-13.6 6.2-3.1-23.9c.5-.1 1.1-.2 1.8-.3zm1.8 99.5h-26.3v-37.1c0-3.3-2.7-6-6-6s-6 2.7-6 6v37.1h-16v-65.7c0-3.3.8-7.1 2-10.2 3.1-6.7 9-12.3 15.9-14.6l4.9-1.7c5.2-1.8 10.6-3.3 16-4.6l4.1 31.1c.4 3.3 3.4 5.6 6.7 5.2.6-.1 1.2-.2 1.7-.5l9.6-4.4 1.9 8.1zm12.2 0 7.6-51.5 8.5.2 5.9 51.3zm62.5-73.6v73.6h-28.4l-6.6-56.7 2.3-7.8 8.1 3.6c3.1 1.3 6.6 0 8-3.1.2-.5.4-1.1.5-1.6l4.1-31.1c5.4 1.3 10.7 2.8 16 4.6l.2.1c-2.8 5.7-4.2 11.9-4.2 18.4zm178-158.6c2-.5 3-.4 4.1.4 2.8 2 3.6 5.9 1.6 8.7-.7 1-1.6 1.8-2.8 2.2-.9.4-1.9.5-2.9.5zm-52-106.9c30 8.1 52 35.1 52 67.2v20.2c-1-1.5-2.5-2.6-4.2-3.1-28-6.9-47.7-32-47.8-60.8zm40 94.6v35.1c0 30.9-25.1 56-56 56s-56-25.1-56-56v-9.6c4-4 8.4-8.9 11.2-14.3.9 2.2 3 3.6 5.4 3.6 3.3 0 6-2.7 6-6 0-2.6 2.1-4.7 4.7-4.7s4.7 2.1 4.7 4.7c-.1 3.3 2.5 6.1 5.8 6.2s6.1-2.5 6.2-5.8c0-.2 0-.3 0-.5 0-9.2-7.5-16.7-16.7-16.8-4.3 0-8.4 1.6-11.5 4.6.4-2.5.6-4.9.6-7.4 0-19.7 16.1-35.7 35.8-35.7h.1 12.1c7.5 22.3 25.2 39.6 47.6 46.6zm-128-27.4c0-38.5 31.2-69.6 69.7-69.7 2.1 0 4.3.1 6.3.3v25.6c.1 4.2.6 8.5 1.4 12.6h-9.1c-26.4-.1-47.8 21.3-47.9 47.7 0 13.7-7.9 26.2-20.2 32.1 0-.1-.2-.4-.2-.5zm20 271.9h-5.5c-3.8-10-3.5-21.2.7-31 1.4-3 0-6.6-3-7.9s-6.6 0-7.9 3c0 .1-.1.2-.1.2-4.8 11.3-5.7 23.9-2.3 35.7h-27.9v-73.6c-.1-16.7 13.4-30.3 30.1-30.4h.1 15.8zm6.8-116h-22.6c-6.7 0-13.4 1.6-19.4 4.7-5.3-19.8-4.7-40.6 1.7-60.1l10.7-32.3c.7-2 1.4-4.1 1.9-6.1 1.6-.5 3-1.1 5-1.8v2.2c-.2 24.1 12.4 46.5 33 58.9v23.8c.2 5.7-4.4 10.5-10.1 10.7-.1 0-.1 0-.2 0zm85.2 116h-80v-59.7c26.2 7 53.8 7 80 0zm0-72.1c-26.1 7.5-53.9 7.5-80 0v-32.6c10.1-2.5 17.1-11.6 17-22v-18.2c14.9 5.2 31.1 5.2 46 0v18.2c-.1 10.4 6.9 19.5 17 22zm-5-54.4c0-.1 0-.1 0-.2v-23.8c15.3-9.2 26.5-23.9 31.2-41.1l6 17.6c6.6 18.8 6.9 39.3.8 58.3-1.7-.2-3.4-.3-5.2-.3h-22.5c-5.8-.1-10.4-4.8-10.3-10.5zm63 52.9v73.6h-27.9c3.4-11.8 2.6-24.5-2.3-35.8-1.3-3.1-4.8-4.5-7.9-3.2-3.1 1.4-4.4 5-3.1 8 4.2 9.9 4.5 20.9.7 31h-5.5v-104h15.8c16.7 0 30.2 13.6 30.2 30.4zm86.8-15.7-3.5 26.6-15.7-7.1 9.9-9.5c3-2.9 5.3-6.5 6.5-10.5 1 .2 1.9.4 2.8.5zm-29.8 13-12-11.7c-2.5-2.5-4-5.8-4-9.4v-7.2c4.6 1.7 9.4 2.6 14.3 2.8h1.7c5.5 0 10.9-.9 16-2.8v7.1c0 3.5-1.4 6.9-3.9 9.4zm8.6 18.3-2.2 7.6-11.2-.2-1.9-7.4 7.1-3.7zm-22.6-180.9c3.8-3.8 8.9-6 14.3-6.1 6.9.1 13.2 3.7 16.9 9.5-12.7-4.8-25.5-2.2-34.4 1 .8-1.6 1.9-3.1 3.2-4.4zm30.5 16.4c6.3 3.4 10.9 7.1 14.2 11.2 6 7.5 9 17.1 8.3 26.7l-.6 8.5c-6.6-3.8-8.7-11.5-8.8-11.9-.6-2.5-2.8-4.4-5.5-4.5-30.5-1.9-37.1-9-43.1-28.3 7.1-3.3 22.3-8.8 35.5-1.7zm-45.5 9.4c1.3 3.7 2.9 7.3 4.8 10.7-5.6 3.2-10.6 7.3-14.6 12.3.7-8.5 4.1-16.6 9.8-23zm-7.4 64c-.1-3.3-2.7-5.9-6-5.9h-.8c-2.6.1-4.7-2-4.8-4.6 0-.4 0-.8.1-1.1.4-1.6 2.1-1.6 2.7-1.5l1.5.2c2.7 0 5.1-1.9 5.8-4.5 4.7-14.8 13.6-22.4 21.3-26.3 7.6 6.8 18.5 10.6 36.2 12.1 2.6 6.1 9.3 17 23.5 18.6h2.5c1.2-.3 2.3.4 2.6 1.6.3 1.1.1 2.1-.3 3.1-.7 1.6-2.5 2.5-4.2 2.5h-.9c-3.3.1-5.9 2.7-6 5.9-.8 20.2-17.7 35.9-37.9 35.2-19.3-.8-34.6-16.1-35.3-35.3zm9.6 59.4c1.3 4 3.5 7.6 6.5 10.4l9.9 9.5-15.7 7.1-3.5-26.6c.9-.2 1.9-.3 2.8-.4zm2.7 89.9h-20.8v-73.8c0-4.1-.6-8-1.7-11.8 1.7-.5 3.5-.9 5.2-1.3l4.4 33.8c.4 3.3 3.4 5.6 6.7 5.2.6-.1 1.2-.2 1.7-.5l10.8-4.9 2.2 9.1zm12.2-.1 7.3-38.4 10.3.3 5.7 38.1zm79.1-.1c2-12 .7-21.2-4.2-32.8-1.3-3.1-4.8-4.5-7.9-3.3-3 1.3-4.5 4.7-3.2 7.8 4.3 10.1 5.1 17.8 3.1 27.7 0 .1 0-.5-.1.5h-31.5l-6.5-43.6 2.6-8.8 9.1 4.1c3.1 1.3 6.6 0 8-3.1.2-.5.4-1.1.5-1.6l4.4-33.8c6 1.4 11.8 3.1 17.6 5.1l5.3 1.8c7.6 2.5 14 8.6 17.3 15.9 1.3 3.4 2.2 7.5 2.1 11.2l.2 52.9z"/><path d="m273.9 197.3c3.3 0 6-2.7 6-6 0-2.6 2.1-4.8 4.8-4.8s4.8 2.1 4.8 4.8c0 3.3 2.7 6 6 6s6-2.7 6-6c0-9.3-7.5-16.8-16.8-16.8s-16.8 7.5-16.8 16.8c0 3.3 2.7 6 6 6z"/><path d="m233.8 227.4c-2.3 2.3-2.3 6.1 0 8.5 12.3 12.2 32.1 12.2 44.4 0 2.3-2.3 2.3-6.1 0-8.5-2.3-2.3-6.1-2.3-8.5 0-7.6 7.6-19.8 7.6-27.4 0-2.3-2.4-6.1-2.4-8.5 0z"/><path d="m174 352.4c-3.3 0-6 2.7-6 6v1.6c0 3.3 2.7 6 6 6s6-2.7 6-6v-1.6c0-3.3-2.7-6-6-6z"/><path d="m174 371c-3.3 0-6 2.7-6 6v29.2c0 3.3 2.7 6 6 6s6-2.7 6-6v-29.2c0-3.4-2.7-6-6-6z"/></g></svg>